<?xml version="1.0" encoding="UTF-8" standalone="no"?>
<!-- Created with Inkscape (http://www.inkscape.org/) -->

<svg
   xmlns:dc="http://purl.org/dc/elements/1.1/"
   xmlns:cc="http://creativecommons.org/ns#"
   xmlns:rdf="http://www.w3.org/1999/02/22-rdf-syntax-ns#"
   xmlns:svg="http://www.w3.org/2000/svg"
   xmlns="http://www.w3.org/2000/svg"
   xmlns:xlink="http://www.w3.org/1999/xlink"
   xmlns:sodipodi="http://sodipodi.sourceforge.net/DTD/sodipodi-0.dtd"
   xmlns:inkscape="http://www.inkscape.org/namespaces/inkscape"
   width="566.92914"
   height="318.89764"
   id="svg2"
   sodipodi:version="0.32"
   inkscape:version="0.48.4 r9939"
   sodipodi:docname="background.svg"
   inkscape:output_extension="org.inkscape.output.svg.inkscape"
   inkscape:export-filename="/home/ralsina/Desktop/proyectos/rst/trunk/rst2pdf/tests/input/background.png"
   inkscape:export-xdpi="120"
   inkscape:export-ydpi="120"
   version="1.0">
  <defs
     id="defs4">
    <linearGradient
       inkscape:collect="always"
       id="linearGradient3834">
      <stop
         style="stop-color:#000000;stop-opacity:0.09"
         offset="0"
         id="stop3836" />
      <stop
         style="stop-color:#000000;stop-opacity:0;"
         offset="1"
         id="stop3838" />
    </linearGradient>
    <linearGradient
       id="linearGradient3155">
      <stop
         style="stop-color:#000000;stop-opacity:1;"
         offset="0"
         id="stop3157" />
      <stop
         id="stop3163"
         offset="0.06521739"
         style="stop-color:#000000;stop-opacity:0.49803922;" />
      <stop
         style="stop-color:#000000;stop-opacity:0.24705882;"
         offset="0.14650284"
         id="stop3165" />
      <stop
         style="stop-color:#000000;stop-opacity:0;"
         offset="1"
         id="stop3159" />
    </linearGradient>
    <inkscape:perspective
       sodipodi:type="inkscape:persp3d"
       inkscape:vp_x="0 : 526.18109 : 1"
       inkscape:vp_y="0 : 1000 : 0"
       inkscape:vp_z="744.09448 : 526.18109 : 1"
       inkscape:persp3d-origin="372.04724 : 350.78739 : 1"
       id="perspective10" />
    <linearGradient
       inkscape:collect="always"
       xlink:href="#linearGradient3834"
       id="linearGradient3840"
       x1="292.99683"
       y1="320.08047"
       x2="292.99683"
       y2="-27.162394"
       gradientUnits="userSpaceOnUse"
       gradientTransform="matrix(1.0040578,0,0,1.0069215,-1.0007968,-1.1036361)" />
    <marker
       orient="auto"
       markerHeight="3"
       markerWidth="4"
       markerUnits="strokeWidth"
       refY="5"
       refX="10"
       viewBox="0 0 10 10"
       id="ArrowStart">
      <path
         id="path3896"
         d="M 10 0 L 0 5 L 10 10 z" />
    </marker>
    <marker
       orient="auto"
       markerHeight="3"
       markerWidth="4"
       markerUnits="strokeWidth"
       refY="5"
       refX="0"
       viewBox="0 0 10 10"
       id="ArrowEnd">
      <path
         id="path3893"
         d="M 0 0 L 10 5 L 0 10 z" />
    </marker>
  </defs>
  <sodipodi:namedview
     id="base"
     pagecolor="#ffffff"
     bordercolor="#666666"
     borderopacity="1.0"
     gridtolerance="10000"
     guidetolerance="10"
     objecttolerance="10"
     inkscape:pageopacity="0.0"
     inkscape:pageshadow="2"
     inkscape:zoom="1.2547413"
     inkscape:cx="292.26175"
     inkscape:cy="192.21421"
     inkscape:document-units="px"
     inkscape:current-layer="layer1"
     showgrid="false"
     inkscape:window-width="1440"
     inkscape:window-height="842"
     inkscape:window-x="1865"
     inkscape:window-y="71"
     units="cm"
     inkscape:window-maximized="0" />
  <metadata
     id="metadata7">
    <rdf:RDF>
      <cc:Work
         rdf:about="">
        <dc:format>image/svg+xml</dc:format>
        <dc:type
           rdf:resource="http://purl.org/dc/dcmitype/StillImage" />
        <dc:title />
      </cc:Work>
    </rdf:RDF>
  </metadata>
  <g
     inkscape:label="Layer 1"
     inkscape:groupmode="layer"
     id="layer1">
    <rect
       style="fill:url(#linearGradient3840);fill-opacity:1;stroke:#000000;stroke-width:0;stroke-linecap:round;stroke-linejoin:miter;stroke-miterlimit:4;stroke-opacity:1;stroke-dasharray:none"
       id="rect2383"
       width="566.96173"
       height="318.83765"
       x="0.13137391"
       y="0.030011084" />
    <g
       style="fill-rule:evenodd"
       id="g3952"
       transform="matrix(0.09664132,0,0,0.09664132,521.36367,231.90992)">
      <g
         id="g3898">
        <path
           id="path3900"
           d="m 0,246.39 0,0 2.75,-2 3.5,-2.25 5,-2.75 6.5,-3.5 8,-4 9.25,-4.5 11,-4.5 12.5,-4.75 14,-4.75 15.5,-4.75 8.25,-2.25 8.75,-2.25 9,-2 9.75,-2.25 9.75,-1.75 10.5,-2 10.5,-1.75 11.25,-1.5 11.5,-1.25 12,-1.25 0,0 14,-1.25 13.25,-1 25,-1.5 22.75,-1 20.5,-0.25 18.5,0.25 16.5,0.5 14.75,1 12.5,1.25 11,1.5 9.25,1.25 7.75,1.5 6,1.5 4.5,1.25 3.25,1 2.5,0.75 0,590 0,0 -1.75,1.5 -2.5,2 -3.75,2.5 -5,3 -6.5,3.25 -8,3.75 -9.75,4 -11.5,4.25 -13.25,4.25 -7.5,2 -8,2 -8.5,2 -9,2 -9.5,2 -10.25,2 -10.75,1.75 -11.5,1.75 -12,1.5 -12.5,1.5 -13.5,1.5 -13.75,1.25 0,0 -25.75,1.75 -23.5,1.5 -22,1 -20,0.5 -18.5,0.25 -16.5,-0.25 -14.75,-0.25 -13.25,-0.5 -11.5,-0.75 -10,-0.75 -8.25,-0.75 -6.75,-0.75 -8.75,-1 -3,-0.5 0,-590 0,0 z"
           style="fill:#a7182f;stroke:none"
           inkscape:connector-curvature="0" />
        <path
           id="path3902"
           d="m 251.75,375.64 0,0 -0.5,5.25 -1,5.25 -1.25,5 -1.75,5 -2,5 -2.25,4.75 -2.75,4.75 -3,4.75 0,0 -0.75,1 0,0 -0.5,0.5 0,0 -2,2.25 -2.25,1.75 0,0 -1.5,0.75 -1.5,0.5 -1.75,0.5 -1.75,0.25 -4,0.5 -4.5,-0.25 -5,-0.75 -5.5,-1.25 -6.25,-1.75 -6.5,-2.5 -7,-3.25 -7.5,-4 -8,-4.5 -8.25,-5.5 -9,-6.25 -9.25,-6.75 -9.5,-8 -10.25,-8.5 0,0 -1.75,-1.75 4.5,-7.25 0,0 4.25,-6 4.25,-5.75 4.75,-5.75 0,0 5.75,-6.25 6,-5.75 6,-5.25 6.25,-4.75 6.25,-4.25 6,-3.5 6.25,-3.25 6,-2.5 5.75,-2 5.75,-1.5 5.25,-0.75 2.75,-0.25 2.5,0 2.5,0.25 2.25,0.25 2.5,0.5 2,0.75 2.25,0.75 2,1 1.75,1.25 1.75,1.5 0,0 2.25,2 2,2 2,2.5 2,2.25 3.5,5.25 3,5.5 2.5,5.75 2.25,6 1.75,6 1.25,6 0,0 0.5,3.5 0.5,3.75 0.25,3.5 0.25,3.75 0,0 5,-8.5 4.75,-8.75 4.25,-8.25 3.5,-8.25 3.25,-8 2.5,-7.75 2.25,-7.5 1.5,-7.25 0.75,-6.75 0.5,-6.5 0,-3.25 -0.25,-3 -0.25,-2.75 -0.5,-2.75 -0.75,-2.5 -0.75,-2.5 -1,-2.5 -1,-2.25 -1.25,-2 -1.5,-2 -1.5,-1.75 -1.75,-1.75 0,0 -1.75,-1.5 -2,-1.25 -1.75,-1 -2.25,-1 -2,-0.75 -2.5,-0.5 -2.25,-0.5 -2.5,-0.5 -5.25,-0.25 -5.5,0.5 -5.75,0.75 -6,1.5 -6.25,2 -6.5,2.5 -6.75,3 -7,3.5 -7,4 -7.25,4.5 -7,5 -7.5,5.25 0,0 -6.25,5.25 -1,0.5 0,0 -6.75,5.75 0,0 -5.75,5.25 -5.75,5.5 0,0 -5,5 -5,5 -5,5.25 -4.75,5.5 0,0 -4.75,5.5 0,0 -8,9.75 -0.25,0.75 -0.25,0.25 -0.5,0.5 -0.5,0.5 0,0 -3.75,5.25 0,0 -2.25,3.25 0,0 -4.25,-4.75 -3.25,-4.25 -2.75,-4 -2,-3.75 -1.25,-3.25 -1,-3 -0.25,-2.75 0.5,-2.25 0.75,-2.25 0.5,-0.5 0,0 1.5,-2.5 0,0 2.75,-4 3,-4 0,0 4.25,-4.75 4.5,-4.5 4.75,-3.75 5,-3.75 5.25,-3 5.25,-2.75 5.5,-2.25 5.75,-2 0,0 -8.25,-4.75 -8,-4.5 -7.75,-4 -7.5,-3.5 -7.25,-3.25 -7,-2.5 -6.75,-2.25 -6.25,-2 -5.75,-1.25 -5.5,-0.75 -5,-0.25 -4.75,0 -2,0.25 -2,0.5 -1.75,0.5 -1.75,0.75 -1.75,0.75 -1.25,1 -1.5,1.25 -1,1.25 0,0 -1.25,1.5 -0.75,1.5 -0.75,2 -0.5,1.75 -0.25,2.25 -0.25,2.25 0.25,2.25 0.25,2.5 0.25,2.5 0.75,2.75 1.75,5.5 2.5,6.25 3.25,6.25 3.75,6.75 4.5,7.25 5,7.25 5.5,7.5 6.25,7.75 6.75,8 7.25,8 7.5,8 0,0.5 0,0 -2,2.75 0,0 -4.25,7 -0.25,0.5 0,0 -3.5,5.75 0,0 -4.25,7.75 -3.75,8 -3.5,7.5 -3,7.5 -2.5,7.25 -2,7 -1.75,7 -1,6.5 -0.5,6 -0.25,6 0.5,5.5 1,5 0.5,2.5 0.75,2.25 1,2 1,2 1.25,2 1.5,1.75 1.5,1.75 1.5,1.5 0,0 1.75,1.5 2,1.25 2,1 2,1 2.25,0.75 2.25,0.75 2.5,0.5 2.5,0.25 2.5,0.25 2.75,0 5.5,-0.5 6,-1 6.25,-1.5 6.25,-2 6.75,-2.5 6.75,-3.25 7,-3.5 7.25,-4.25 7.25,-4.5 7.25,-5.25 7.5,-5.5 0,0 -3.75,0.25 -3.75,0.25 -3.75,0 -3.5,-0.25 -3.75,-0.5 -3.75,-0.5 -3.5,-0.75 -3.75,-0.75 -3.5,-1.25 -3.75,-1 -3.5,-1.5 -3.5,-1.5 -3.25,-1.75 -3.5,-2 -3.25,-2 -3.25,-2.25 -0.25,-0.25 0,0 -1.75,-1.25 -1.75,-1.75 -1.25,-1.5 -1.25,-2 -1,-1.75 -1,-2 -0.75,-2 -0.5,-2.25 -1,-4.25 -0.25,-4.5 0,-4.5 0.5,-4.25 0,0 1,-5.5 0,-0.25 0,0 1.5,-6 0.25,0 0,0 1.25,-4 1.5,-4 2,-5 1.75,1.75 0,0 11.25,10.25 12,10 0,0 12.5,10.25 12.5,9.25 12.5,8.75 12,8 12,7.25 11.25,6.5 11.25,5.75 10.5,4.75 5,2 4.75,2 4.75,1.5 4.5,1.5 4.5,1 4,1 4,0.75 3.75,0.25 3.5,0.25 3.25,0 3.25,-0.5 2.75,-0.5 2.5,-1 2.25,-1 2,-1.5 1.75,-1.75 0,0 1,-1.5 0.75,-1.5 0.75,-1.5 0.5,-1.75 0.25,-2 0.25,-2 0,-2 0,-2.25 -0.75,-4.5 -1.5,-5 -2,-5.5 -2.5,-5.75 -3,-6 -3.5,-6.25 -4.25,-6.5 -4.5,-6.75 -5.25,-6.75 -5.5,-7.25 -6.25,-7.25 -6.5,-7.25 0,0 z"
           style="fill:#ffffff;stroke:none"
           inkscape:connector-curvature="0" />
        <path
           id="path3904"
           d="m 293,234.64 0,0 5,4.25 4.75,4.75 5,5 4.75,5.25 4.5,5.5 4.5,6 4.5,6.5 4.25,6.5 4,6.75 3.75,7.25 3.75,7.25 3.25,7.75 3,7.75 2.75,8 2.5,8.25 2.25,8.25 1.75,8.75 1.25,8.5 1,9 0.5,9 0,9 -0.25,9.25 -1,9.25 -1.5,9.25 -1.75,9.5 -2.5,9.25 -3.25,9.5 -3.5,9.5 -4.5,9.5 -5,9.25 -2.75,4.75 -2.75,4.75 -3,4.75 -3.25,4.75 0,0 -3.25,4.25 0,0 -4,4.5 -4,4.25 -4.25,4 -4.25,4 -4.25,3.75 -4.25,3.5 -4.5,3.5 -4.5,3.25 -4.75,3 -4.5,2.75 -4.75,2.75 -4.75,2.5 -5,2.5 -4.75,2 -5,2 -4.75,2 -10,3.25 -10.25,2.75 -10,2.25 -10.25,1.75 -10,1.25 -10.25,0.5 -10,0.25 -10,0 -10,-0.75 -9.5,-1 -9.5,-1.25 -9.5,-1.5 -9,-2 -8.75,-2.25 -8.5,-2.5 -8,-2.5 -7.75,-3 -7.25,-3 -6.75,-3.25 -6.5,-3.25 -6,-3.5 -5.25,-3.5 -4.75,-3.75 -4.25,-3.5 0,0 2.25,-2.25 5.75,-6.75 0,0 1.5,-1.5 2,-1.5 2.25,-1 2.5,-0.75 2.5,-0.25 2.75,0 3,0.5 2.75,1 0,0 9.75,4.75 11,4.75 12,5 6.25,2.25 6.5,2.25 6.75,2 6.75,2 7,1.75 7.25,1.75 7.25,1.25 7.5,1.25 7.5,0.75 7.75,0.5 7.75,0.25 7.75,0 8,-0.75 8,-0.75 8,-1.5 8.25,-1.75 8.25,-2.25 8,-2.75 8.25,-3.5 8.25,-4 8,-4.5 8.25,-5 8.25,-5.75 8,-6.5 8,-7.25 8,-7.75 0,0 2.75,-3.25 2.75,-3.5 0,0 4,-5.5 3.5,-5.5 3.5,-5.5 3,-5.5 3,-5.5 2.5,-5.5 2.5,-5.25 2.25,-5.25 1.75,-5.5 1.75,-5.25 1.5,-5.25 1.25,-5.25 1,-5 1,-5.25 0.75,-5 0.5,-5 0.25,-5 0.25,-5 0,-4.75 0,-5 -0.75,-9.5 -1.25,-9 -1.75,-9 -2,-8.75 -2.5,-8.25 -2.75,-8 -3.25,-7.75 -3.25,-7.25 -3.25,-7 -3.5,-6.5 -3.75,-6.25 -3.5,-5.5 -3.5,-5.25 -3.25,-5 -6.25,-8 -5,-6 -3.5,-4 -1.5,-1.5 0,0 -0.5,-0.5 -0.5,-0.75 -0.5,-1 -0.25,-1.25 0,-1 0,-1 0.5,-1 0.5,-0.75 0,0 1.5,-1.25 0,0 z"
           style="fill:#ffffff;stroke:none"
           inkscape:connector-curvature="0" />
        <path
           id="path3906"
           d="m 36.5,761.89 11.5,0 -3.75,20 4,0 3.5,-20 11.5,0 0.75,-3.5 -27,0 -0.5,3.5 0,0 z"
           style="fill:#ffffff;stroke:none"
           inkscape:connector-curvature="0" />
        <path
           id="path3908"
           d="m 77,781.89 23.25,0 0.5,-3.25 -19.25,0 1.25,-7 18.5,0 0.5,-3.5 -18.5,0 1.25,-6.25 19.25,0 0.5,-3.5 -23.25,0 -4,23.5 0,0 z"
           style="fill:#ffffff;stroke:none"
           inkscape:connector-curvature="0" />
        <path
           id="path3910"
           d="m 173.25,764.64 0,0 0,-1.5 0,-0.5 -0.5,-0.25 -1,-0.5 -1.75,0 -14.5,0 -1.25,7.75 14.75,0 0,0 1.5,0 1.25,-0.5 0.75,-1 0.5,-1.25 0.25,-2.25 0,0 z m -1.75,-6.25 0,0 1.5,0 1.25,0.25 1.25,0.5 0.75,0.5 0.75,0.75 0.25,1.25 0.25,1.5 -0.25,2 0,0 -0.75,3.25 -0.75,1.5 -0.75,1 -1,1 -1.5,0.5 -2,0.5 -2.25,0.25 -14.75,0 -1.5,8.75 -3.75,0 4,-23.5 19.25,0 0,0 z"
           style="fill:#ffffff;stroke:none"
           inkscape:connector-curvature="0" />
        <path
           id="path3912"
           d="m 216.75,775.89 0,0 -0.25,1.25 -0.5,0.5 -0.25,0.5 -0.75,0.25 -0.75,0.25 -2.5,0.25 -10.75,0 0,0 -2.25,-0.25 -0.75,-0.25 -0.5,-0.25 -0.25,-0.5 -0.25,-0.5 0,-1.25 3.25,-17.5 -4,0 -3,17.5 0,0 -0.25,1.75 0.25,1.25 0.25,1.25 0.75,0.75 1.25,0.75 1.25,0.25 1.75,0.25 2,0 10.5,0 0,0 2.25,0 1.75,-0.25 1.5,-0.25 1.25,-0.75 1,-0.75 1,-1.25 0.5,-1.25 0.5,-1.75 3,-17.5 -3.75,0 -3.25,17.5 0,0 z"
           style="fill:#ffffff;stroke:none"
           inkscape:connector-curvature="0" />
        <path
           id="path3914"
           d="m 276.75,773.89 13.75,0 -4.75,-11.75 -9,11.75 0,0 z m 7.5,-15.5 4.25,0 9.75,23.5 -4.25,0 -2,-4.75 -17.75,0 -3.75,4.75 -4.5,0 18.25,-23.5 0,0 z"
           style="fill:#ffffff;stroke:none"
           inkscape:connector-curvature="0" />
        <path
           id="path3916"
           d="m 343.75,765.89 0,0 0,-1.25 0,-1 -0.5,-0.75 -0.5,-0.5 -0.5,-0.5 -0.75,-0.25 -2,0 -12.5,0 0,0 -2,0 -0.75,0.25 -1,0.5 -0.5,0.5 -0.75,0.75 -0.5,1 -0.25,1.25 -1.5,8.5 0,0 0,1.25 0,1 0.25,0.75 0.5,0.75 0.75,0.25 0.75,0.25 2,0.25 12.5,0 0,0 2,-0.25 0.75,-0.25 0.75,-0.25 0.75,-0.75 0.5,-0.75 0.5,-1 0.25,-1.25 1.75,-8.5 0,0 z m -3.25,-7.75 0,0 2,0.25 1.75,0.25 1.5,0.75 1,1 0.5,1.25 0.25,1.5 0,2 -0.25,2 -1,6.25 0,0 -0.5,2 -0.75,1.75 -0.75,1.5 -1,1.25 -1.5,1 -1.5,0.75 -2,0.5 -2,0 -13.25,0 0,0 -2.25,0 -1.75,-0.5 -1.25,-0.75 -1,-1 -0.5,-1.25 -0.5,-1.5 0,-1.75 0.25,-2 1.25,-6.25 0,0 0.5,-2 0.5,-2 1,-1.5 1,-1.25 1.25,-1 1.75,-0.75 1.75,-0.25 2.25,-0.25 13.25,0 0,0 z"
           style="fill:#ffffff;stroke:none"
           inkscape:connector-curvature="0" />
        <path
           id="path3918"
           d="m 198,748.64 -0.5,3 27.5,0 0.5,-3 -27.5,0 0,0 z"
           style="fill:#ffffff;stroke:none"
           inkscape:connector-curvature="0" />
        <path
           id="path3920"
           d="m 29,733.89 0,3.5 329.25,0 0,-3.5 -329.25,0 0,0 z"
           style="fill:#ffffff;stroke:none"
           inkscape:connector-curvature="0" />
        <path
           id="path3922"
           d="m 136,716.39 -0.25,1 6.75,0 0,-0.5 5.75,-31.75 0,-1 -6.75,0 0,0.75 -5.5,31.5 0,0 z"
           style="fill:#ffffff;stroke:none"
           inkscape:connector-curvature="0" />
        <path
           id="path3924"
           d="m 115.75,695.64 0,1 6.25,0 0,-0.5 0.5,-3.25 0,0 0.25,-1.75 0,-1.75 -0.5,-1.5 -1,-1.25 0,0 -1.25,-1.25 -1.75,-0.75 -2.5,-0.5 -2.75,-0.25 -15.75,0 0,0 -3,0.25 -2.5,0.5 -2.25,1 -2,1.25 -1.5,1.75 -1.25,2.25 -1,2.5 -0.75,3 -1.5,8.5 0,0 -0.5,3.25 0.25,2.75 0.5,2.25 0.5,1 0.5,0.75 0,0 1.5,1.25 2,1 2.5,0.5 2.75,0.25 15.75,0 0,0 3.25,-0.25 2.75,-0.5 2,-0.75 1.75,-1.25 1.25,-1.5 1,-1.5 0.75,-2 0.5,-2 0.5,-2.5 0,-1 -6.5,0 0,0.5 -0.5,2.5 0,0 -0.5,2 -0.5,0.75 -0.5,0.5 -1,0.5 -1,0.25 -3.25,0.25 -14.5,0 0,0 -1.5,-0.25 -1.25,0 -1,-0.5 -0.5,-0.5 0,0 -0.5,-0.75 -0.25,-0.75 0,-1.25 0.25,-1.25 2,-11.5 0,0 0.25,-1.5 0.5,-1.25 0.75,-0.75 0.75,-0.75 1,-0.5 1.25,-0.25 2.5,-0.25 14.25,0 0,0 2.75,0 1,0.5 0.75,0.5 0,0 0.5,0.5 0,0.5 0,2 -0.5,1.75 0,0 z"
           style="fill:#ffffff;stroke:none"
           inkscape:connector-curvature="0" />
        <path
           id="path3926"
           d="m 49,717.89 0,0 4.25,-0.25 2.5,-0.25 2.25,-0.75 2,-1 1,-0.75 0.75,-1 1,-1 0.5,-1.25 0.5,-1.5 0.5,-1.5 0.25,-2 0,0 0.25,-2 -0.25,-1.5 -0.25,-1.25 -0.75,-1.25 0,0 -0.75,-0.75 -1,-0.75 -1,-0.5 -1.25,-0.25 -2.75,-0.5 -3.5,-0.25 -12.25,0 0,0 -2.25,0 -1.5,-0.25 -1,-0.25 -0.75,-0.5 0,0 -0.25,-0.25 0,-0.5 0,-1.75 0,0 0.5,-1.25 0.25,-1 0.75,-0.75 1,-0.5 1.25,-0.5 1.75,-0.25 5,0 4.5,0 0,0 3,0 0,0 3.5,0 1.25,0.25 1,0.5 0,0 0.25,0.5 0.25,1 0,1 0,1.5 -0.25,1 6.5,0 0,-0.75 0.25,-1.5 0,0 0.25,-2 0,-1.75 -0.5,-1.5 -0.75,-1.25 0,0 -0.75,-0.75 -1,-0.5 -1,-0.5 -1.25,-0.5 -3.25,-0.5 -4.25,-0.25 -9,0 0,0 -3,0 -2.75,0.25 -2.5,0.75 -2.25,0.75 -1.75,1.25 -1.5,1.75 -1,2.25 -0.75,2.75 0,0 -0.25,2.25 0,2 0.5,1.75 0.75,1.25 0,0 1,1 1.25,0.75 1.5,0.5 2,0.25 4.25,0.5 5.5,0 7.75,0 0,0 3,0.25 1,0.25 0.5,0.25 0,0 0.25,0.5 0,0.5 0,1.75 0,0 -0.25,1 -0.5,1 -0.5,0.75 -0.75,0.75 -0.75,0.5 -1.25,0.25 -3.5,0.25 -13,0 0,0 -1.5,-0.25 -1.25,0 -1,-0.5 -0.75,-0.25 0,0 -0.25,-0.75 0,-1.25 0.5,-2.75 0.25,-1 -6.5,0 -0.25,0.75 -0.5,2.75 0,0 0,1.75 0,1.75 0.5,1.5 0.75,1.25 0,0 1,0.75 1,0.75 1.25,0.5 1.25,0.5 2.75,0.25 2.75,0.25 11.5,0 0,0 z"
           style="fill:#ffffff;stroke:none"
           inkscape:connector-curvature="0" />
        <path
           id="path3928"
           d="m 304.5,695.64 0,1 6.25,0 0,-0.5 0.75,-3.25 0,0 0,-1.75 0,-1.75 -0.5,-1.5 -0.75,-1.25 0,0 -1.5,-1.25 -1.75,-0.75 -2.25,-0.5 -2.75,-0.25 -16,0 0,0 -3,0.25 -2.5,0.5 -2.25,1 -2,1.25 -1.5,1.75 -1.25,2.25 -1,2.5 -0.75,3 -1.5,8.5 0,0 -0.5,3.25 0.25,2.75 0.5,2.25 0.5,1 0.5,0.75 0,0 1.5,1.25 2,1 2.5,0.5 2.75,0.25 15.75,0 0,0 3.25,-0.25 2.75,-0.5 2.25,-0.75 1.5,-1.25 1.5,-1.5 0.75,-1.5 0.75,-2 0.5,-2 0.5,-2.5 0,-1 -6.5,0 0,0.5 -0.5,2.5 0,0 -0.5,2 -0.5,0.75 -0.5,0.5 -1,0.5 -1,0.25 -3.25,0.25 -14.5,0 0,0 -1.5,-0.25 -1.25,0 -1,-0.5 -0.5,-0.5 0,0 -0.5,-0.75 -0.25,-0.75 0,-1.25 0.25,-1.25 2,-11.5 0,0 0.25,-1.5 0.5,-1.25 0.75,-0.75 1,-0.75 0.75,-0.5 1.25,-0.25 2.5,-0.25 14.25,0 0,0 2.75,0 1.25,0.5 0.75,0.5 0,0 0.25,0.5 0,0.5 0,2 -0.5,1.75 0,0 z"
           style="fill:#ffffff;stroke:none"
           inkscape:connector-curvature="0" />
        <path
           id="path3930"
           d="m 330,684.89 -5.5,31.5 0,1 32.75,0 0.25,-0.5 0.75,-4.5 0,-1 -26,0 1.5,-8 24.75,0 0.25,-0.75 0.75,-4.25 0,-1 -0.75,0 -24,0 1.25,-7.25 25.25,0 0.75,0 0,-0.5 0.75,-4.5 0.25,-1 -32.75,0 -0.25,0.75 0,0 z"
           style="fill:#ffffff;stroke:none"
           inkscape:connector-curvature="0" />
        <path
           id="path3932"
           d="m 245.5,709.39 -21.75,-25 -0.25,-0.25 -7.75,0 -0.25,0.75 -5.5,31.5 -0.25,1 6.75,0 0.25,-0.5 4.25,-24.75 21.75,25 0.25,0.25 7.75,0 0.25,-0.5 5.5,-31.75 0.25,-1 -6.75,0 -0.25,0.75 -4.25,24.5 0,0 z"
           style="fill:#ffffff;stroke:none"
           inkscape:connector-curvature="0" />
        <path
           id="path3934"
           d="m 197.75,690.14 0.5,0 0.25,-0.5 0.75,-4.5 0.25,-1 -32.75,0 -0.25,0.75 -5.5,31.5 -0.25,1 33,0 0,-0.5 0.75,-4.5 0.25,-1 -26,0 1.25,-8 25,0 0.25,-0.75 0.75,-4.25 0,-1 -1,0 -23.75,0 1.25,-7.25 25.25,0 0,0 z"
           style="fill:#ffffff;stroke:none"
           inkscape:connector-curvature="0" />
        <path
           id="path3936"
           d="m 58.75,664.89 28.5,0 0,0 9.5,-0.25 8,-0.25 3.5,-0.5 3.25,-0.5 3,-1 2.75,-1 2.25,-1.25 2.25,-1.5 2,-2 1.5,-2.25 1.5,-2.5 1.25,-3 1,-3.5 1,-4 3.75,-22 -53.5,0 -2.75,16 29.5,0 -0.25,2.25 0,0 -0.25,1.25 -0.5,1.25 -0.5,1 -0.75,1 -1.5,1.5 -1.75,1 -2,0.75 -2,0.5 -2.5,0.25 -2.25,0 -25.5,0 0,0 -4,-0.25 -3.25,-0.5 -1.25,-0.25 -1.25,-0.5 -1,-0.75 -0.75,-0.75 -0.5,-1 -0.5,-1.25 -0.25,-1.25 -0.25,-1.5 0.25,-3.75 0.5,-4.5 1.75,-9.5 0,0 1,-4.75 1.25,-3.5 0.5,-1.5 0.75,-1.25 1,-1.25 1,-1 1,-0.75 1.25,-0.75 1.25,-0.5 1.5,-0.5 3.5,-0.5 4,0 25.75,0 0,0 2.75,0 2.5,0.25 2,0.5 1.5,0.5 1.25,1.25 0.25,0.75 0.25,0.75 0.25,2 -0.25,2.5 23.5,0 0.5,-2.25 0,0 0.75,-5.5 0,-2.5 0,-2.25 -0.25,-2.25 -0.5,-2.25 -1,-1.75 -1,-1.75 -1.75,-1.5 -1.75,-1.25 -2.25,-1.25 -2.75,-1 -3.25,-0.75 -3.75,-0.5 -4.25,-0.5 -4.75,0 -35.75,0 0,0 -4,0 -3.75,0.25 -3.5,0.5 -3.5,0.5 -3,0.75 -3,1 -2.75,1 -2.75,1.5 -2.25,1.75 -2.25,2 -2,2.25 -1.75,2.75 -1.5,2.75 -1.25,3.5 -1.25,3.5 -0.75,4 -4,23.25 0,0 -0.75,4 0,3.75 0,3.25 0.5,3 0.75,2.75 1.25,2.25 1.5,2 1.75,1.75 2,1.25 2.5,1.25 2.5,1 3,0.75 3.25,0.5 3.25,0.5 3.75,0 4,0.25 0,0 z"
           style="fill:#ffffff;stroke:none"
           inkscape:connector-curvature="0" />
        <path
           id="path3938"
           d="m 337.25,585.39 -33.25,0 0,0 -5.25,0.25 -4.75,0.25 -4.25,0.5 -3.5,1 -3.25,1 -2.75,1.25 -2.5,1.25 -2,1.75 -1.5,1.75 -1.5,1.75 -1,2.25 -1,2 -0.75,2.5 -0.75,2.25 -1,5.25 0,0 -0.5,3.25 -0.25,3.25 -0.25,2.75 0.25,2.25 0.5,2.25 0.75,2 1.25,1.5 1.5,1.5 2,1.25 2.75,1 3,0.75 3.75,0.5 4.25,0.5 5,0.25 12,0.25 0,0 10.25,0 7.75,0.25 6,0.25 4,0.5 1.5,0.5 1,0.5 0.75,0.5 0.75,0.75 0.25,0.75 0,1 -0.25,2.25 0,0 -0.5,2 -1,1.5 -1,1.25 -1.5,0.75 -1.75,0.5 -1.75,0.25 -3.75,0.25 -29.25,0 0,0 -2.25,0 -2.25,-0.25 -1.5,-0.25 -1.5,-0.75 -0.75,-1.25 -0.5,-1.5 -0.25,-2 0.25,-3 -23.75,0 -1,5.5 0,0 -0.25,3 -0.25,2.75 0,2.5 0.5,2 0.5,2 1,1.75 1.25,1.5 1.5,1.25 1.75,1 2,1 2.25,0.75 2.75,0.5 3,0.5 3.25,0.25 7.5,0.25 28.75,0 0,0 11,-0.25 4.5,-0.25 4.25,-0.5 3.75,-0.5 3.25,-0.75 2.75,-1 2.5,-1.25 2.25,-1.25 2,-1.75 1.75,-2 1.25,-2.25 1.25,-2.75 1,-3 1,-3.25 0.75,-3.75 0,0 0.5,-4 0.25,-3.5 0,-3.25 -0.5,-2.75 -0.75,-2.25 -1.25,-2 -1.5,-1.75 -2,-1.25 -2.75,-1.25 -3,-1 -3.5,-0.5 -4.25,-0.5 -4.75,-0.5 -5.25,-0.25 -12.5,0 0,0 -15.25,0 -5,-0.25 -3.5,-0.5 -1.25,-0.5 -1,-0.5 -0.75,-0.5 -0.5,-0.75 -0.25,-0.75 0,-0.75 0.25,-2.25 0,0 0.25,-1.5 0.75,-1.25 1,-1 1.25,-1 1.5,-0.5 1.5,-0.5 1.75,-0.25 2,0 26.5,0 0,0 3.5,0 2.75,0.25 2,0.75 1.25,0.75 0.75,1.25 0.25,1.25 0,1.75 -0.5,2 24,0 0.25,-2.5 0,0 0.75,-5 0.25,-2.25 0,-2 -0.25,-2.25 -0.5,-1.75 -0.75,-1.75 -1.25,-1.75 -1.5,-1.25 -1.75,-1.25 -2.25,-1.25 -2.75,-0.75 -3,-0.75 -3.75,-0.5 -4.25,-0.5 -5,0 0,0 z"
           style="fill:#ffffff;stroke:none"
           inkscape:connector-curvature="0" />
        <path
           id="path3940"
           d="m 235.75,586.14 -9.5,54.5 0,0 -0.5,0 -1,-0.25 0,0 -0.75,-0.25 -0.25,-0.25 0,0 -26.75,-43.75 0,0 -0.75,-1.25 -1.25,-1.5 -1.5,-1.75 -2,-1.5 -2.5,-1.5 -2.75,-1.25 -3.25,-0.75 -2,-0.25 -2,-0.25 -24.5,0 -9,0 0,0 1.25,0.75 1.25,1.25 1.25,1.5 0,0 0.5,1.25 0.5,1.5 0.75,3.5 0.25,3.5 0,2.5 -11,62 23.75,0 9.75,-54.25 0,0 1.25,-0.25 0,0 0.5,0.25 0.25,0.25 0,0 27.5,44.5 0,0 1.5,2.25 1.75,1.75 2.25,1.75 2.25,1.5 2.5,1 2.5,0.75 2.5,0.5 2.75,0 0,0 24.75,0 13.75,-77.75 -24,0 0,0 z"
           style="fill:#ffffff;stroke:none"
           inkscape:connector-curvature="0" />
      </g>
      <g
         id="g3942" />
    </g>
  </g>
</svg>
